<mxfile host="app.diagrams.net" modified="2023-12-07T19:37:25.839Z" agent="Mozilla/5.0 (Windows NT 10.0; Win64; x64; rv:120.0) Gecko/20100101 Firefox/120.0" etag="pC4-uoL3zTS52civYbU0" version="22.1.7" type="github">
  <diagram name="Page-1" id="SH67A6-GAvsow1dZvhtm">
    <mxGraphModel dx="478" dy="255" grid="1" gridSize="10" guides="1" tooltips="1" connect="1" arrows="1" fold="1" page="1" pageScale="1" pageWidth="850" pageHeight="1100" math="0" shadow="0">
      <root>
        <mxCell id="0" />
        <mxCell id="1" parent="0" />
        <mxCell id="ddbEHXoO0qccoVohShfA-1" value="" style="rounded=0;whiteSpace=wrap;html=1;" vertex="1" parent="1">
          <mxGeometry x="460" y="244" width="120" height="126" as="geometry" />
        </mxCell>
        <mxCell id="ddbEHXoO0qccoVohShfA-11" value="&lt;font style=&quot;font-size: 10px;&quot;&gt;A&lt;/font&gt;" style="text;html=1;strokeColor=none;fillColor=none;align=center;verticalAlign=middle;whiteSpace=wrap;rounded=0;" vertex="1" parent="1">
          <mxGeometry x="460" y="252" width="20" height="10" as="geometry" />
        </mxCell>
        <mxCell id="ddbEHXoO0qccoVohShfA-12" value="&lt;font style=&quot;font-size: 10px;&quot;&gt;B&lt;/font&gt;" style="text;html=1;strokeColor=none;fillColor=none;align=center;verticalAlign=middle;whiteSpace=wrap;rounded=0;" vertex="1" parent="1">
          <mxGeometry x="460" y="264" width="20" height="10" as="geometry" />
        </mxCell>
        <mxCell id="ddbEHXoO0qccoVohShfA-13" value="&lt;font style=&quot;font-size: 10px;&quot;&gt;C&lt;/font&gt;" style="text;html=1;strokeColor=none;fillColor=none;align=center;verticalAlign=middle;whiteSpace=wrap;rounded=0;" vertex="1" parent="1">
          <mxGeometry x="460" y="276" width="20" height="10" as="geometry" />
        </mxCell>
        <mxCell id="ddbEHXoO0qccoVohShfA-14" value="&lt;font style=&quot;font-size: 10px;&quot;&gt;D&lt;/font&gt;" style="text;html=1;strokeColor=none;fillColor=none;align=center;verticalAlign=middle;whiteSpace=wrap;rounded=0;" vertex="1" parent="1">
          <mxGeometry x="460" y="289" width="20" height="10" as="geometry" />
        </mxCell>
        <mxCell id="ddbEHXoO0qccoVohShfA-15" value="&lt;font style=&quot;font-size: 10px;&quot;&gt;E&lt;/font&gt;" style="text;html=1;strokeColor=none;fillColor=none;align=center;verticalAlign=middle;whiteSpace=wrap;rounded=0;" vertex="1" parent="1">
          <mxGeometry x="460" y="300" width="20" height="10" as="geometry" />
        </mxCell>
        <mxCell id="ddbEHXoO0qccoVohShfA-16" value="&lt;font style=&quot;font-size: 10px;&quot;&gt;F&lt;/font&gt;" style="text;html=1;strokeColor=none;fillColor=none;align=center;verticalAlign=middle;whiteSpace=wrap;rounded=0;" vertex="1" parent="1">
          <mxGeometry x="460" y="311" width="20" height="10" as="geometry" />
        </mxCell>
        <mxCell id="ddbEHXoO0qccoVohShfA-17" value="&lt;font style=&quot;font-size: 10px;&quot;&gt;G&lt;/font&gt;" style="text;html=1;strokeColor=none;fillColor=none;align=center;verticalAlign=middle;whiteSpace=wrap;rounded=0;" vertex="1" parent="1">
          <mxGeometry x="460" y="321" width="20" height="10" as="geometry" />
        </mxCell>
        <mxCell id="ddbEHXoO0qccoVohShfA-20" value="&lt;font style=&quot;font-size: 10px;&quot;&gt;GND&lt;/font&gt;" style="text;html=1;strokeColor=none;fillColor=none;align=center;verticalAlign=middle;whiteSpace=wrap;rounded=0;" vertex="1" parent="1">
          <mxGeometry x="463" y="333" width="20" height="10" as="geometry" />
        </mxCell>
        <mxCell id="ddbEHXoO0qccoVohShfA-27" style="edgeStyle=orthogonalEdgeStyle;rounded=0;orthogonalLoop=1;jettySize=auto;html=1;exitX=1;exitY=0.5;exitDx=0;exitDy=0;exitPerimeter=0;entryX=0;entryY=0.5;entryDx=0;entryDy=0;endArrow=none;endFill=0;" edge="1" parent="1" source="ddbEHXoO0qccoVohShfA-26" target="ddbEHXoO0qccoVohShfA-11">
          <mxGeometry relative="1" as="geometry" />
        </mxCell>
        <mxCell id="ddbEHXoO0qccoVohShfA-26" value="" style="pointerEvents=1;verticalLabelPosition=bottom;shadow=0;dashed=0;align=center;html=1;verticalAlign=top;shape=mxgraph.electrical.resistors.resistor_2;" vertex="1" parent="1">
          <mxGeometry x="420" y="256" width="31" height="6" as="geometry" />
        </mxCell>
        <mxCell id="ddbEHXoO0qccoVohShfA-29" value="" style="group" vertex="1" connectable="0" parent="1">
          <mxGeometry x="490" y="250" width="82" height="110" as="geometry" />
        </mxCell>
        <mxCell id="ddbEHXoO0qccoVohShfA-2" value="" style="verticalLabelPosition=bottom;shadow=0;dashed=0;align=center;html=1;verticalAlign=top;shape=mxgraph.electrical.opto_electronics.7_segment_display;pointerEvents=1;" vertex="1" parent="ddbEHXoO0qccoVohShfA-29">
          <mxGeometry x="1" width="80" height="110" as="geometry" />
        </mxCell>
        <mxCell id="ddbEHXoO0qccoVohShfA-3" value="&lt;font style=&quot;font-size: 10px;&quot;&gt;A&lt;/font&gt;" style="text;html=1;strokeColor=none;fillColor=none;align=center;verticalAlign=middle;whiteSpace=wrap;rounded=0;" vertex="1" parent="ddbEHXoO0qccoVohShfA-29">
          <mxGeometry x="37" y="2" width="20" height="10" as="geometry" />
        </mxCell>
        <mxCell id="ddbEHXoO0qccoVohShfA-5" value="&lt;font style=&quot;font-size: 10px;&quot;&gt;B&lt;/font&gt;" style="text;html=1;strokeColor=none;fillColor=none;align=center;verticalAlign=middle;whiteSpace=wrap;rounded=0;" vertex="1" parent="ddbEHXoO0qccoVohShfA-29">
          <mxGeometry x="62" y="24" width="20" height="10" as="geometry" />
        </mxCell>
        <mxCell id="ddbEHXoO0qccoVohShfA-6" value="&lt;font style=&quot;font-size: 10px;&quot;&gt;G&lt;/font&gt;" style="text;html=1;strokeColor=none;fillColor=none;align=center;verticalAlign=middle;whiteSpace=wrap;rounded=0;" vertex="1" parent="ddbEHXoO0qccoVohShfA-29">
          <mxGeometry x="31" y="49" width="20" height="10" as="geometry" />
        </mxCell>
        <mxCell id="ddbEHXoO0qccoVohShfA-7" value="&lt;font style=&quot;font-size: 10px;&quot;&gt;F&lt;/font&gt;" style="text;html=1;strokeColor=none;fillColor=none;align=center;verticalAlign=middle;whiteSpace=wrap;rounded=0;" vertex="1" parent="ddbEHXoO0qccoVohShfA-29">
          <mxGeometry x="7" y="26" width="20" height="10" as="geometry" />
        </mxCell>
        <mxCell id="ddbEHXoO0qccoVohShfA-8" value="&lt;font style=&quot;font-size: 10px;&quot;&gt;E&lt;/font&gt;" style="text;html=1;strokeColor=none;fillColor=none;align=center;verticalAlign=middle;whiteSpace=wrap;rounded=0;" vertex="1" parent="ddbEHXoO0qccoVohShfA-29">
          <mxGeometry y="73" width="20" height="10" as="geometry" />
        </mxCell>
        <mxCell id="ddbEHXoO0qccoVohShfA-9" value="&lt;font style=&quot;font-size: 10px;&quot;&gt;D&lt;/font&gt;" style="text;html=1;strokeColor=none;fillColor=none;align=center;verticalAlign=middle;whiteSpace=wrap;rounded=0;" vertex="1" parent="ddbEHXoO0qccoVohShfA-29">
          <mxGeometry x="26" y="97" width="20" height="10" as="geometry" />
        </mxCell>
        <mxCell id="ddbEHXoO0qccoVohShfA-10" value="&lt;font style=&quot;font-size: 10px;&quot;&gt;C&lt;/font&gt;" style="text;html=1;strokeColor=none;fillColor=none;align=center;verticalAlign=middle;whiteSpace=wrap;rounded=0;" vertex="1" parent="ddbEHXoO0qccoVohShfA-29">
          <mxGeometry x="56" y="72" width="20" height="10" as="geometry" />
        </mxCell>
        <mxCell id="ddbEHXoO0qccoVohShfA-31" value="" style="rounded=0;whiteSpace=wrap;html=1;" vertex="1" parent="1">
          <mxGeometry x="300" y="240" width="100" height="130" as="geometry" />
        </mxCell>
        <mxCell id="ddbEHXoO0qccoVohShfA-32" style="edgeStyle=orthogonalEdgeStyle;rounded=0;orthogonalLoop=1;jettySize=auto;html=1;exitX=0;exitY=0.5;exitDx=0;exitDy=0;exitPerimeter=0;entryX=0.996;entryY=0.139;entryDx=0;entryDy=0;entryPerimeter=0;endArrow=none;endFill=0;" edge="1" parent="1" source="ddbEHXoO0qccoVohShfA-26" target="ddbEHXoO0qccoVohShfA-31">
          <mxGeometry relative="1" as="geometry" />
        </mxCell>
        <mxCell id="ddbEHXoO0qccoVohShfA-39" style="edgeStyle=orthogonalEdgeStyle;rounded=0;orthogonalLoop=1;jettySize=auto;html=1;exitX=1;exitY=0.5;exitDx=0;exitDy=0;exitPerimeter=0;entryX=0;entryY=0.75;entryDx=0;entryDy=0;endArrow=none;endFill=0;" edge="1" parent="1" source="ddbEHXoO0qccoVohShfA-33" target="ddbEHXoO0qccoVohShfA-12">
          <mxGeometry relative="1" as="geometry" />
        </mxCell>
        <mxCell id="ddbEHXoO0qccoVohShfA-33" value="" style="pointerEvents=1;verticalLabelPosition=bottom;shadow=0;dashed=0;align=center;html=1;verticalAlign=top;shape=mxgraph.electrical.resistors.resistor_2;" vertex="1" parent="1">
          <mxGeometry x="420" y="268" width="31" height="6" as="geometry" />
        </mxCell>
        <mxCell id="ddbEHXoO0qccoVohShfA-40" style="edgeStyle=orthogonalEdgeStyle;rounded=0;orthogonalLoop=1;jettySize=auto;html=1;exitX=1;exitY=0.5;exitDx=0;exitDy=0;exitPerimeter=0;entryX=0;entryY=0.75;entryDx=0;entryDy=0;endArrow=none;endFill=0;" edge="1" parent="1" source="ddbEHXoO0qccoVohShfA-34" target="ddbEHXoO0qccoVohShfA-13">
          <mxGeometry relative="1" as="geometry" />
        </mxCell>
        <mxCell id="ddbEHXoO0qccoVohShfA-34" value="" style="pointerEvents=1;verticalLabelPosition=bottom;shadow=0;dashed=0;align=center;html=1;verticalAlign=top;shape=mxgraph.electrical.resistors.resistor_2;" vertex="1" parent="1">
          <mxGeometry x="420" y="280" width="31" height="6" as="geometry" />
        </mxCell>
        <mxCell id="ddbEHXoO0qccoVohShfA-41" style="edgeStyle=orthogonalEdgeStyle;rounded=0;orthogonalLoop=1;jettySize=auto;html=1;exitX=1;exitY=0.5;exitDx=0;exitDy=0;exitPerimeter=0;entryX=0;entryY=0.75;entryDx=0;entryDy=0;endArrow=none;endFill=0;" edge="1" parent="1" source="ddbEHXoO0qccoVohShfA-35" target="ddbEHXoO0qccoVohShfA-14">
          <mxGeometry relative="1" as="geometry" />
        </mxCell>
        <mxCell id="ddbEHXoO0qccoVohShfA-35" value="" style="pointerEvents=1;verticalLabelPosition=bottom;shadow=0;dashed=0;align=center;html=1;verticalAlign=top;shape=mxgraph.electrical.resistors.resistor_2;" vertex="1" parent="1">
          <mxGeometry x="420" y="291" width="31" height="6" as="geometry" />
        </mxCell>
        <mxCell id="ddbEHXoO0qccoVohShfA-43" style="edgeStyle=orthogonalEdgeStyle;rounded=0;orthogonalLoop=1;jettySize=auto;html=1;exitX=1;exitY=0.5;exitDx=0;exitDy=0;exitPerimeter=0;entryX=0;entryY=0.75;entryDx=0;entryDy=0;endArrow=none;endFill=0;" edge="1" parent="1" source="ddbEHXoO0qccoVohShfA-36" target="ddbEHXoO0qccoVohShfA-15">
          <mxGeometry relative="1" as="geometry" />
        </mxCell>
        <mxCell id="ddbEHXoO0qccoVohShfA-51" style="edgeStyle=orthogonalEdgeStyle;rounded=0;orthogonalLoop=1;jettySize=auto;html=1;exitX=0;exitY=0.5;exitDx=0;exitDy=0;exitPerimeter=0;entryX=1;entryY=0.5;entryDx=0;entryDy=0;endArrow=none;endFill=0;" edge="1" parent="1" source="ddbEHXoO0qccoVohShfA-36" target="ddbEHXoO0qccoVohShfA-31">
          <mxGeometry relative="1" as="geometry" />
        </mxCell>
        <mxCell id="ddbEHXoO0qccoVohShfA-36" value="" style="pointerEvents=1;verticalLabelPosition=bottom;shadow=0;dashed=0;align=center;html=1;verticalAlign=top;shape=mxgraph.electrical.resistors.resistor_2;" vertex="1" parent="1">
          <mxGeometry x="420" y="302" width="31" height="6" as="geometry" />
        </mxCell>
        <mxCell id="ddbEHXoO0qccoVohShfA-44" style="edgeStyle=orthogonalEdgeStyle;rounded=0;orthogonalLoop=1;jettySize=auto;html=1;exitX=1;exitY=0.5;exitDx=0;exitDy=0;exitPerimeter=0;entryX=0;entryY=0.75;entryDx=0;entryDy=0;endArrow=none;endFill=0;" edge="1" parent="1" source="ddbEHXoO0qccoVohShfA-37" target="ddbEHXoO0qccoVohShfA-16">
          <mxGeometry relative="1" as="geometry" />
        </mxCell>
        <mxCell id="ddbEHXoO0qccoVohShfA-37" value="" style="pointerEvents=1;verticalLabelPosition=bottom;shadow=0;dashed=0;align=center;html=1;verticalAlign=top;shape=mxgraph.electrical.resistors.resistor_2;" vertex="1" parent="1">
          <mxGeometry x="420" y="313" width="31" height="6" as="geometry" />
        </mxCell>
        <mxCell id="ddbEHXoO0qccoVohShfA-45" style="edgeStyle=orthogonalEdgeStyle;rounded=0;orthogonalLoop=1;jettySize=auto;html=1;exitX=1;exitY=0.5;exitDx=0;exitDy=0;exitPerimeter=0;entryX=0;entryY=0.75;entryDx=0;entryDy=0;endArrow=none;endFill=0;" edge="1" parent="1" source="ddbEHXoO0qccoVohShfA-38" target="ddbEHXoO0qccoVohShfA-17">
          <mxGeometry relative="1" as="geometry" />
        </mxCell>
        <mxCell id="ddbEHXoO0qccoVohShfA-38" value="" style="pointerEvents=1;verticalLabelPosition=bottom;shadow=0;dashed=0;align=center;html=1;verticalAlign=top;shape=mxgraph.electrical.resistors.resistor_2;" vertex="1" parent="1">
          <mxGeometry x="420" y="323" width="31" height="6" as="geometry" />
        </mxCell>
        <mxCell id="ddbEHXoO0qccoVohShfA-48" style="edgeStyle=orthogonalEdgeStyle;rounded=0;orthogonalLoop=1;jettySize=auto;html=1;exitX=0;exitY=0.5;exitDx=0;exitDy=0;exitPerimeter=0;entryX=1;entryY=0.23;entryDx=0;entryDy=0;entryPerimeter=0;endArrow=none;endFill=0;" edge="1" parent="1" source="ddbEHXoO0qccoVohShfA-33" target="ddbEHXoO0qccoVohShfA-31">
          <mxGeometry relative="1" as="geometry" />
        </mxCell>
        <mxCell id="ddbEHXoO0qccoVohShfA-49" style="edgeStyle=orthogonalEdgeStyle;rounded=0;orthogonalLoop=1;jettySize=auto;html=1;exitX=0;exitY=0.5;exitDx=0;exitDy=0;exitPerimeter=0;entryX=0.998;entryY=0.33;entryDx=0;entryDy=0;entryPerimeter=0;endArrow=none;endFill=0;" edge="1" parent="1" source="ddbEHXoO0qccoVohShfA-34" target="ddbEHXoO0qccoVohShfA-31">
          <mxGeometry relative="1" as="geometry" />
        </mxCell>
        <mxCell id="ddbEHXoO0qccoVohShfA-50" style="edgeStyle=orthogonalEdgeStyle;rounded=0;orthogonalLoop=1;jettySize=auto;html=1;exitX=0;exitY=0.5;exitDx=0;exitDy=0;exitPerimeter=0;entryX=1.009;entryY=0.408;entryDx=0;entryDy=0;entryPerimeter=0;endArrow=none;endFill=0;" edge="1" parent="1" source="ddbEHXoO0qccoVohShfA-35" target="ddbEHXoO0qccoVohShfA-31">
          <mxGeometry relative="1" as="geometry" />
        </mxCell>
        <mxCell id="ddbEHXoO0qccoVohShfA-52" style="edgeStyle=orthogonalEdgeStyle;rounded=0;orthogonalLoop=1;jettySize=auto;html=1;exitX=0;exitY=0.5;exitDx=0;exitDy=0;exitPerimeter=0;entryX=1;entryY=0.591;entryDx=0;entryDy=0;entryPerimeter=0;endArrow=none;endFill=0;" edge="1" parent="1" source="ddbEHXoO0qccoVohShfA-37" target="ddbEHXoO0qccoVohShfA-31">
          <mxGeometry relative="1" as="geometry" />
        </mxCell>
        <mxCell id="ddbEHXoO0qccoVohShfA-53" style="edgeStyle=orthogonalEdgeStyle;rounded=0;orthogonalLoop=1;jettySize=auto;html=1;exitX=0;exitY=0.5;exitDx=0;exitDy=0;exitPerimeter=0;entryX=1;entryY=0.5;entryDx=0;entryDy=0;endArrow=none;endFill=0;" edge="1" parent="1" source="ddbEHXoO0qccoVohShfA-38" target="ddbEHXoO0qccoVohShfA-61">
          <mxGeometry relative="1" as="geometry" />
        </mxCell>
        <mxCell id="ddbEHXoO0qccoVohShfA-54" value="&lt;font style=&quot;font-size: 10px;&quot;&gt;2.2k Ω&lt;/font&gt;" style="text;html=1;strokeColor=none;fillColor=none;align=center;verticalAlign=middle;whiteSpace=wrap;rounded=0;" vertex="1" parent="1">
          <mxGeometry x="420" y="238" width="34.5" height="18" as="geometry" />
        </mxCell>
        <mxCell id="ddbEHXoO0qccoVohShfA-55" value="&lt;font style=&quot;font-size: 9px;&quot;&gt;RB7&lt;/font&gt;" style="text;html=1;strokeColor=none;fillColor=none;align=center;verticalAlign=middle;whiteSpace=wrap;rounded=0;" vertex="1" parent="1">
          <mxGeometry x="380" y="252" width="20" height="10" as="geometry" />
        </mxCell>
        <mxCell id="ddbEHXoO0qccoVohShfA-56" value="&lt;font style=&quot;font-size: 9px;&quot;&gt;RC7&lt;/font&gt;" style="text;html=1;strokeColor=none;fillColor=none;align=center;verticalAlign=middle;whiteSpace=wrap;rounded=0;" vertex="1" parent="1">
          <mxGeometry x="380" y="264" width="20" height="10" as="geometry" />
        </mxCell>
        <mxCell id="ddbEHXoO0qccoVohShfA-57" value="&lt;font style=&quot;font-size: 9px;&quot;&gt;RC2&lt;/font&gt;" style="text;html=1;strokeColor=none;fillColor=none;align=center;verticalAlign=middle;whiteSpace=wrap;rounded=0;" vertex="1" parent="1">
          <mxGeometry x="380" y="276" width="20" height="10" as="geometry" />
        </mxCell>
        <mxCell id="ddbEHXoO0qccoVohShfA-58" value="&lt;font style=&quot;font-size: 9px;&quot;&gt;RB4&lt;/font&gt;" style="text;html=1;strokeColor=none;fillColor=none;align=center;verticalAlign=middle;whiteSpace=wrap;rounded=0;" vertex="1" parent="1">
          <mxGeometry x="380" y="289" width="20" height="10" as="geometry" />
        </mxCell>
        <mxCell id="ddbEHXoO0qccoVohShfA-59" value="&lt;font style=&quot;font-size: 9px;&quot;&gt;RB5&lt;/font&gt;" style="text;html=1;strokeColor=none;fillColor=none;align=center;verticalAlign=middle;whiteSpace=wrap;rounded=0;" vertex="1" parent="1">
          <mxGeometry x="380" y="300" width="20" height="10" as="geometry" />
        </mxCell>
        <mxCell id="ddbEHXoO0qccoVohShfA-60" value="&lt;font style=&quot;font-size: 9px;&quot;&gt;RC0&lt;/font&gt;" style="text;html=1;strokeColor=none;fillColor=none;align=center;verticalAlign=middle;whiteSpace=wrap;rounded=0;" vertex="1" parent="1">
          <mxGeometry x="380" y="311" width="20" height="10" as="geometry" />
        </mxCell>
        <mxCell id="ddbEHXoO0qccoVohShfA-61" value="&lt;font style=&quot;font-size: 9px;&quot;&gt;RC1&lt;/font&gt;" style="text;html=1;strokeColor=none;fillColor=none;align=center;verticalAlign=middle;whiteSpace=wrap;rounded=0;" vertex="1" parent="1">
          <mxGeometry x="380" y="321" width="20" height="10" as="geometry" />
        </mxCell>
        <mxCell id="ddbEHXoO0qccoVohShfA-62" value="PIC16F13145" style="text;html=1;strokeColor=none;fillColor=none;align=center;verticalAlign=middle;whiteSpace=wrap;rounded=0;" vertex="1" parent="1">
          <mxGeometry x="320" y="214" width="60" height="30" as="geometry" />
        </mxCell>
        <mxCell id="ddbEHXoO0qccoVohShfA-71" style="edgeStyle=orthogonalEdgeStyle;rounded=0;orthogonalLoop=1;jettySize=auto;html=1;exitX=0;exitY=0.5;exitDx=0;exitDy=0;endArrow=none;endFill=0;" edge="1" parent="1" source="ddbEHXoO0qccoVohShfA-63">
          <mxGeometry relative="1" as="geometry">
            <mxPoint x="260" y="230" as="targetPoint" />
            <Array as="points">
              <mxPoint x="270" y="265" />
              <mxPoint x="270" y="230" />
            </Array>
          </mxGeometry>
        </mxCell>
        <mxCell id="ddbEHXoO0qccoVohShfA-63" value="&lt;font style=&quot;font-size: 10px;&quot;&gt;Vdd&lt;/font&gt;" style="text;html=1;strokeColor=none;fillColor=none;align=center;verticalAlign=middle;whiteSpace=wrap;rounded=0;" vertex="1" parent="1">
          <mxGeometry x="300" y="256" width="30" height="18" as="geometry" />
        </mxCell>
        <mxCell id="ddbEHXoO0qccoVohShfA-64" value="&lt;font style=&quot;font-size: 10px;&quot;&gt;Vss&lt;/font&gt;" style="text;html=1;strokeColor=none;fillColor=none;align=center;verticalAlign=middle;whiteSpace=wrap;rounded=0;" vertex="1" parent="1">
          <mxGeometry x="300" y="327" width="30" height="19" as="geometry" />
        </mxCell>
        <mxCell id="ddbEHXoO0qccoVohShfA-68" style="edgeStyle=orthogonalEdgeStyle;rounded=0;orthogonalLoop=1;jettySize=auto;html=1;exitX=0.5;exitY=0;exitDx=0;exitDy=0;exitPerimeter=0;entryX=0;entryY=0.5;entryDx=0;entryDy=0;endArrow=none;endFill=0;" edge="1" parent="1" source="ddbEHXoO0qccoVohShfA-67" target="ddbEHXoO0qccoVohShfA-64">
          <mxGeometry relative="1" as="geometry" />
        </mxCell>
        <mxCell id="ddbEHXoO0qccoVohShfA-67" value="" style="pointerEvents=1;verticalLabelPosition=bottom;shadow=0;dashed=0;align=center;html=1;verticalAlign=top;shape=mxgraph.electrical.signal_sources.signal_ground;" vertex="1" parent="1">
          <mxGeometry x="260" y="365" width="18" height="19" as="geometry" />
        </mxCell>
        <mxCell id="ddbEHXoO0qccoVohShfA-69" value="&lt;font style=&quot;font-size: 10px;&quot;&gt;+5V&lt;/font&gt;" style="text;html=1;strokeColor=none;fillColor=none;align=center;verticalAlign=middle;whiteSpace=wrap;rounded=0;" vertex="1" parent="1">
          <mxGeometry x="249" y="214" width="40" height="16" as="geometry" />
        </mxCell>
        <mxCell id="ddbEHXoO0qccoVohShfA-70" value="" style="endArrow=none;html=1;rounded=0;" edge="1" parent="1">
          <mxGeometry width="50" height="50" relative="1" as="geometry">
            <mxPoint x="281.5" y="230" as="sourcePoint" />
            <mxPoint x="256.5" y="230" as="targetPoint" />
          </mxGeometry>
        </mxCell>
        <mxCell id="ddbEHXoO0qccoVohShfA-73" style="edgeStyle=orthogonalEdgeStyle;rounded=0;orthogonalLoop=1;jettySize=auto;html=1;exitX=0.5;exitY=0;exitDx=0;exitDy=0;exitPerimeter=0;entryX=0;entryY=0.75;entryDx=0;entryDy=0;endArrow=none;endFill=0;" edge="1" parent="1" source="ddbEHXoO0qccoVohShfA-72" target="ddbEHXoO0qccoVohShfA-1">
          <mxGeometry relative="1" as="geometry">
            <Array as="points">
              <mxPoint x="436" y="339" />
            </Array>
          </mxGeometry>
        </mxCell>
        <mxCell id="ddbEHXoO0qccoVohShfA-72" value="" style="pointerEvents=1;verticalLabelPosition=bottom;shadow=0;dashed=0;align=center;html=1;verticalAlign=top;shape=mxgraph.electrical.signal_sources.signal_ground;" vertex="1" parent="1">
          <mxGeometry x="426.5" y="365" width="18" height="19" as="geometry" />
        </mxCell>
      </root>
    </mxGraphModel>
  </diagram>
</mxfile>
